<svg xmlns="http://www.w3.org/2000/svg" viewBox="0 0 64 64">
  <rect width="64" height="64" rx="14" fill="#0b0f14"/>
  <path d="M20 18L16 12" stroke="#7CFF00" stroke-width="3" stroke-linecap="round"/>
  <path d="M44 18L48 12" stroke="#7CFF00" stroke-width="3" stroke-linecap="round"/>
  <rect x="14" y="18" width="36" height="28" rx="12" fill="#7CFF00"/>
  <path d="M14 30C18 25 24 22 32 22C40 22 46 25 50 30L46 40C42 44 37 46 32 46C27 46 22 44 18 40L14 30Z" fill="#101820"/>
  <rect x="21" y="28" width="8" height="4" rx="2" fill="#7CFF00"/>
  <rect x="35" y="28" width="8" height="4" rx="2" fill="#7CFF00"/>
  <path d="M24 38C27 40 30 41 32 41C34 41 37 40 40 38" stroke="#7CFF00" stroke-width="2.5" stroke-linecap="round"/>
</svg>